<svg xmlns="http://www.w3.org/2000/svg" width="64" height="64" viewBox="0 0 64 64">
  <defs>
    <style>
      .cls-1 {
        fill: none;
        stroke: #4770ff;
        stroke-width: 2px;
        fill-rule: evenodd;
      }
    </style>
  </defs>
  <g>
    <path class="cls-1" d="M32,12.857A19.852,19.852,0,1,1,12.148,32.709,19.852,19.852,0,0,1,32,12.857Z"/>
    <path class="cls-1" d="M48.43,43.475l-2.707-3.5s-2.93-4.528.032-6.128L29.273,26.614l0.713,17.38s2.8-2.171,5.2,1.6c1.128,1.775,2.715,3.908,4.078,5.668"/>
  </g>
  <path class="cls-1" d="M29.023,26.677s-4.009-6.14,1.4-8.074,4.616-5.663,4.028-7.149"/>
  <path class="cls-1" d="M34.881,35.027a1.289,1.289,0,1,1-.93,1.568A1.289,1.289,0,0,1,34.881,35.027Z"/>
  <path id="Line_1" data-name="Line 1" class="cls-1" d="M29.668,27.617l0.219-.136,4.981,8.041-0.219.136Z"/>
  <path id="Line_2" data-name="Line 2" class="cls-1" d="M36.837,47.688l-0.159-.2,9.094-7.112,0.159,0.2Z"/>
</svg>
